# xmcd
#
# Track frame offsets:
#	150
#	12608
#	31308
#	54193
#	75369
#	90555
#	106542
#	123035
#	138688
#	153702
#	179935
#	195571
#
# Disc length: 2828 seconds
#
# Revision: 1
# Processed by: cddbd v1.5.2PL0 Copyright (c) Steve Scherf et al.
# Submitted via: audiograbber 1.83.01
#
DISCID=940b0a0c
DTITLE=John Mitchell and Sofie Jonsson - Western Highways
DYEAR=2011
DGENRE=
TTITLE0=The Bonniest Lass A The Warld
TTITLE1=Western Highway
TTITLE2=Four Nations - The Westcosters, The Portsmouth Hornpipe, The Bird´s Nes
TTITLE2=t and Finbar Dwyer´s
TTITLE3=Take Out Drinking Tonight
TTITLE4=Tom Ames Prayer
TTITLE5=Rover
TTITLE6=September
TTITLE7=Parking Lot
TTITLE8=Green Grow The Rashes
TTITLE9=Lindsay´s Waltz
TTITLE10=Song Of The Firth
TTITLE11=9 To 5
EXTD=
EXTT0=
EXTT1=
EXTT2=
EXTT3=
EXTT4=
EXTT5=
EXTT6=
EXTT7=
EXTT8=
EXTT9=
EXTT10=
EXTT11=
PLAYORDER=
